HIERARCHY
ROOT Hips
{
	OFFSET 0.000000 0.000000 0.000000 
	CHANNELS 6 Xposition Yposition Zposition Yrotation Zrotation Xrotation 
	JOINT Lumbar
	{
		OFFSET 0.000000 0.000000 0.000000 
		CHANNELS 3 Zrotation Xrotation Yrotation
		JOINT Neck
		{
			OFFSET 0.000000 0.445665 0.000000 
			CHANNELS 3 Zrotation Xrotation Yrotation
			End Site
			{
				OFFSET 0.000000 0.227535 0.000000 
			}
		}
		JOINT RightShoulder
		{
			OFFSET 0.019635 0.377685 0.194865 
			CHANNELS 3 Zrotation Xrotation Yrotation
			JOINT RightElbow
			{
				OFFSET 0.000000 -0.243375 0.000000 
				CHANNELS 2 Zrotation Yrotation
				JOINT RightWrist
				{
					OFFSET 0.000000 -0.264825 0.000000 
					CHANNELS 2 Zrotation Xrotation
					End Site
					{
						OFFSET 0.006600 -0.176220 0.000990 
					}
				}
			}
		}
		JOINT LeftShoulder
		{
			OFFSET 0.019635 0.377685 -0.194865 
			CHANNELS 3 Zrotation Xrotation Yrotation
			JOINT LeftElbow
			{
				OFFSET 0.000000 -0.243375 0.000000 
				CHANNELS 2 Zrotation Yrotation
				JOINT LeftWrist
				{
					OFFSET 0.000000 -0.264825 0.000000 
					CHANNELS 2 Zrotation Xrotation
					End Site
					{
						OFFSET 0.006600 -0.176220 -0.000990 
					}
				}
			}
		}
	}
	JOINT RightHip
	{
		OFFSET 0.052140 -0.069960 0.075570 
		CHANNELS 3 Zrotation Xrotation Yrotation
		JOINT RightKnee
		{
			OFFSET 0.000000 -0.402270 0.000000 
			CHANNELS 1 Zrotation
			JOINT RightAnkle
			{
				OFFSET 0.000000 -0.404085 0.000000 
				CHANNELS 3 Zrotation Xrotation Yrotation
				End Site
				{
					OFFSET 0.204105 -0.089430 0.008415 
				}
			}
		}
	}
	JOINT LeftHip
	{
		OFFSET 0.052140 -0.069960 -0.075570 
		CHANNELS 3 Zrotation Xrotation Yrotation
		JOINT LeftKnee
		{
			OFFSET 0.000000 -0.402270 0.000000 
			CHANNELS 1 Zrotation
			JOINT LeftAnkle
			{
				OFFSET 0.000000 -0.404085 0.000000 
				CHANNELS 3 Zrotation Xrotation Yrotation
				End Site
				{
					OFFSET 0.204105 -0.089430 -0.008415 
				}
			}
		}
	}
}
MOTION
Frames: 20
Frame Time: 0.02
-0 0.95578 -0 188.35839 0 -3.74123 5.64315 5.61134 -1.57069 -2.14849 -1.54574 -2.03936 -1.0606 -8.71591 -6.17283 6.65427 80.15092 -1.21491 -0.42868 -4.13312 10.95791 23.76697 5.32733 -74.56129 -4.36223 -0.8867 -6.24716 8.67194 5.2275 -2.74694 1.71977 -3.61162 -4.21643 -6.10885 -0.59213 -6.43588 -5.21981 7.69649 6.21731 7.59244
0.00092 0.95583 9e-05 188.57712 0 -3.72737 5.82551 5.56688 -1.63266 -2.73298 -1.48652 -2.10111 0.28353 -8.74483 -5.36154 6.73617 80.07768 -1.21804 -0.47841 -2.20282 11.04287 20.02137 5.70452 -74.88174 -4.36053 -0.48086 -6.21868 8.66847 5.10684 -2.72426 1.69614 -3.62596 -4.30546 -6.00891 -0.59841 -6.60794 -5.28078 7.6722 6.19027 7.54236
0.00183 0.95587 0.00018 188.79492 0 -3.71363 6.00745 5.52249 -1.69438 -3.31644 -1.42625 -2.16234 1.62411 -8.77475 -4.54811 6.8189 80.00534 -1.22127 -0.52884 -0.27748 11.12562 16.29597 6.08225 -75.20057 -4.35925 -0.07599 -6.19007 8.66516 4.99186 -2.70205 1.67212 -3.64119 -4.39932 -5.9094 -0.60465 -6.7796 -5.34132 7.64782 6.16333 7.49273
0.00274 0.95592 0.00027 189.01082 0 -3.70024 6.18921 5.4781 -1.75551 -3.89977 -1.36152 -2.22215 2.96101 -8.80899 -3.7213 6.90482 79.93627 -1.22494 -0.5826 1.64339 11.2011 12.61637 6.46474 -75.5166 -4.35929 0.32824 -6.16109 8.66291 4.91228 -2.68116 1.64507 -3.66198 -4.52713 -5.81105 -0.61071 -6.95066 -5.40045 7.62299 6.13678 7.44414
0.00367 0.95596 0.00036 189.23644 0 -3.68501 6.37162 5.4339 -1.81952 -4.48173 -1.32081 -2.28952 4.31428 -8.82036 -2.96908 6.97278 79.85033 -1.22629 -0.61876 3.58377 11.31601 8.69602 6.82077 -75.84811 -4.35193 0.73497 -6.13456 8.65558 4.66177 -2.65287 1.63257 -3.65555 -4.49153 -5.70705 -0.61763 -7.1241 -5.46669 7.60071 6.10847 7.3897
0.00456 0.95601 0.00045 189.4415 0 -3.67368 6.55267 5.38924 -1.87752 -5.06739 -1.22908 -2.34082 5.63367 -8.88008 -2.05732 7.07938 79.79985 -1.23255 -0.69207 5.48375 11.34677 5.28751 7.23324 -76.14612 -4.36054 1.13661 -6.10255 8.65867 4.76176 -2.64052 1.59034 -3.7052 -4.79043 -5.61478 -0.6228 -7.29285 -5.51807 7.57294 6.08372 7.34793
0.00532 0.95608 0.00059 189.59135 0 -3.67337 6.73299 5.34276 -1.9187 -5.66828 -0.99092 -2.34775 6.87501 -9.08001 -0.68479 7.29329 79.8523 -1.25305 -0.8741 7.29696 11.14275 3.26044 7.81146 -76.3606 -4.41236 1.52968 -6.05683 8.69459 5.96653 -2.67137 1.45301 -3.92976 -6.1527 -5.55629 -0.6225 -7.44845 -5.52629 7.52973 6.07005 7.33938
0.00604 0.95616 0.00074 189.72025 0 -3.67697 6.91153 5.29588 -1.95389 -6.27255 -0.70206 -2.33847 8.08024 -9.32771 0.84611 7.5462 79.93979 -1.27841 -1.09269 9.06614 10.85403 1.75411 8.44519 -76.54014 -4.48043 1.91688 -6.0053 8.7404 7.50334 -2.71851 1.28775 -4.20773 -7.83045 -5.50936 -0.62056 -7.59941 -5.5199 7.48098 6.05979 7.34391
0.00678 0.95623 0.00088 189.85796 0 -3.67861 7.0892 5.24944 -1.99198 -6.87291 -0.43964 -2.33662 9.29405 -9.54952 2.29383 7.7813 80.00791 -1.30114 -1.2908 10.84256 10.60529 0.02734 9.04818 -76.72974 -4.54179 2.30395 -5.95543 8.77906 8.79816 -2.75879 1.1438 -4.44824 -9.27226 -5.45616 -0.6198 -7.75296 -5.5216 7.43485 6.04703 7.34366
0.00751 0.95631 0.00103 189.99889 0 -3.68098 7.2741 5.2018 -2.02928 -7.48362 -0.16273 -2.3345 10.54255 -9.78912 3.79076 8.01726 80.09009 -1.32568 -1.50521 12.67557 10.35012 -1.76912 9.67552 -76.94268 -4.60061 2.70353 -5.90963 8.82872 10.46903 -2.79678 0.96422 -4.7435 -11.09655 -5.40716 -0.61724 -7.90492 -5.51719 7.38821 6.03797 7.33869
0.00826 0.95639 0.00117 190.12784 0 -3.68281 7.44329 5.1567 -2.06683 -8.07305 0.09583 -2.32913 11.70795 -10.0028 5.2202 8.26004 80.15193 -1.34758 -1.69435 14.37655 10.08845 -3.2947 10.26388 -77.10017 -4.66818 3.07472 -5.85407 8.85807 11.44592 -2.84337 0.8513 -4.93851 -12.20926 -5.35227 -0.618 -8.05853 -5.522 7.3414 6.0224 7.34642
0.00914 0.9565 0.0013 190.2313 0 -3.68167 7.5714 5.11769 -2.10605 -8.60728 0.29318 -2.31832 12.67198 -10.13508 6.44652 8.5175 80.14369 -1.36108 -1.80467 15.75513 9.8278 -4.21775 10.7432 -77.10054 -4.75943 3.3768 -5.77205 8.82666 10.33608 -2.91001 0.93722 -4.83414 -11.19299 -5.27731 -0.62859 -8.22241 -5.5562 7.29475 5.98467 7.38795
0.01004 0.95663 0.00142 190.32281 0 -3.67998 7.68332 5.08149 -2.1457 -9.11882 0.46989 -2.30482 13.54935 -10.23928 7.59463 8.77926 80.11473 -1.37173 -1.88818 16.99561 9.56397 -4.8822 11.17871 -77.04849 -4.85819 3.64885 -5.68056 8.77489 8.53278 -2.9847 1.08972 -4.62877 -9.46556 -5.19628 -0.6425 -8.38712 -5.60002 7.24824 5.94085 7.44143
0.01093 0.95675 0.00154 190.41843 0 -3.67887 7.80157 5.04462 -2.18557 -9.63834 0.65491 -2.29295 14.45471 -10.35514 8.76513 9.03577 80.09884 -1.38368 -1.98425 18.27996 9.30258 -5.65415 11.62683 -77.02892 -4.95139 3.92982 -5.59403 8.73391 7.10583 -3.05551 1.20655 -4.47594 -8.1213 -5.11859 -0.65478 -8.54864 -5.63933 7.20213 5.90207 7.48821
0.01184 0.95687 0.00165 190.51961 0 -3.6764 7.9245 5.00494 -2.22389 -10.1693 0.8465 -2.2791 15.40985 -10.47739 9.99982 9.3084 80.06893 -1.39587 -2.08064 19.64637 9.03353 -6.45304 12.10937 -76.97231 -5.05467 4.23144 -5.50459 8.68675 5.43323 -3.1278 1.34525 -4.29713 -6.53663 -5.03856 -0.66769 -8.72247 -5.67913 7.15387 5.85402 7.54093
0.01271 0.95699 0.00179 190.60575 0 -3.67671 8.03333 4.97205 -2.26512 -10.66915 1.01847 -2.26855 16.23753 -10.57895 11.07622 9.54693 80.06262 -1.4067 -2.16871 20.80482 8.78142 -7.13771 12.50698 -76.97996 -5.13795 4.48187 -5.41898 8.64755 4.10184 -3.19873 1.45459 -4.14754 -5.27743 -4.96217 -0.67989 -8.87017 -5.71985 7.11017 5.82354 7.58378
0.01344 0.95707 0.00202 190.66114 0 -3.68364 8.11155 4.95515 -2.31857 -11.10396 1.1445 -2.27126 16.76503 -10.6309 11.76654 9.69858 80.12816 -1.41553 -2.24721 21.46304 8.57194 -7.60072 12.6979 -77.18545 -5.16913 4.60741 -5.34675 8.63477 3.89284 -3.2637 1.4665 -4.10477 -5.10886 -4.89412 -0.69108 -8.95206 -5.76559 7.07934 5.84514 7.59793
0.01412 0.95715 0.00227 190.70056 0 -3.69357 8.17525 4.94537 -2.37423 -11.50504 1.25074 -2.27686 17.16123 -10.66277 12.29282 9.81377 80.21767 -1.42284 -2.31674 21.9088 8.38095 -7.95352 12.801 -77.45598 -5.17892 4.68041 -5.27867 8.63075 4.04736 -3.32693 1.44669 -4.09432 -5.28741 -4.83046 -0.70114 -9.00654 -5.81113 7.05305 5.88424 7.60147
0.01483 0.95722 0.00251 190.74213 0 -3.70291 8.24284 4.93367 -2.426 -11.91193 1.36358 -2.27888 17.59828 -10.70299 12.87337 9.94027 80.29498 -1.43013 -2.38579 22.42651 8.18519 -8.34087 12.9333 -77.69219 -5.1952 4.77204 -5.20833 8.62304 4.02709 -3.39111 1.44163 -4.06792 -5.29377 -4.76684 -0.71057 -9.06913 -5.85363 7.02455 5.91396 7.60879
0.01554 0.9573 0.00276 190.80443 0 -3.70903 8.32159 4.91651 -2.48967 -12.35958 1.48548 -2.29021 18.1137 -10.74497 13.53972 10.09011 80.37715 -1.44038 -2.47345 23.04597 7.97404 -8.78911 13.11089 -77.94747 -5.22542 4.88641 -5.13908 8.6134 4.02399 -3.45517 1.4376 -4.04351 -5.33665 -4.69452 -0.72491 -9.14961 -5.90957 6.99676 5.94948 7.62069
